<?xml version="1.0" encoding="utf-8"?>
<!-- Generator: Adobe Illustrator 16.0.0, SVG Export Plug-In . SVG Version: 6.00 Build 0)  -->
<!DOCTYPE svg PUBLIC "-//W3C//DTD SVG 1.1//EN" "http://www.w3.org/Graphics/SVG/1.1/DTD/svg11.dtd">
<svg version="1.1" id="Ebene_1" xmlns="http://www.w3.org/2000/svg" xmlns:xlink="http://www.w3.org/1999/xlink" x="0px" y="0px"
	 width="230px" height="230px" viewBox="0 0 230 230" enable-background="new 0 0 230 230" xml:space="preserve">
<path display="none" d="M107.391,166.91c-10.765,3.715-22.71,4.369-34.54,1.211c-14.484-3.912-26.16-12.91-33.842-24.508
	l22.146-12.814L8.504,109.846L0,166.184l20.264-11.721c10.463,16.387,26.782,29.078,47.013,34.51
	c16.771,4.506,33.718,3.377,48.848-2.227L107.391,166.91z"/>
<path display="none" d="M81.46,23.41c-19.417,1.006-38.51,8.93-53.225,23.84C16.038,59.609,8.651,74.904,6.052,90.826l21.562,2.201
	c2.084-11.195,7.414-21.906,16.002-30.634C54.17,51.73,67.759,46.02,81.638,45.067l0.208,25.586l44.218-35.438L81.273,0L81.46,23.41
	"/>
<path display="none" d="M132.002,61.719c8.666,7.387,15.295,17.347,18.579,29.143c3.983,14.465,2.161,29.092-3.931,41.598
	l-22.285-12.571l8.682,55.997l52.854-21.276l-20.387-11.506c8.807-17.336,11.454-37.835,5.862-58.024
	c-4.634-16.735-14.211-30.764-26.719-40.953L132.002,61.719z"/>
<path fill="#FFFFFF" d="M185.564,184.758l0.004-102.996c0-31.486-39.352-42.65-61-23l-47.722,47.269L61.29,90.474l-18.957,71.549
	l71.99-18.518L98.766,127.95l37.477-37.477c7.116-8.517,17.858-6.339,18.325,4.288v90L185.564,184.758z"/>
<path display="none" d="M52.333,163.764V73.758c0.467-10.627,11.208-12.805,18.325-4.287l37.476,37.478l-15.556,15.558l71.99,18.517
	l-18.957-71.55L130.055,85.03L82.332,37.76c-21.65-19.65-61-8.486-61,23l0.003,103.001L52.333,163.764z"/>
<path display="none" d="M171.448,161.873V91.469c0-23.353-11.83-39.592-39.997-39.592h-53v-22L14.454,67.065l63.997,37.812v-22h53
	c5.162,0,9,3.839,9,9v70L171.448,161.873z"/>
<path display="none" d="M45.451,161.877v-70c0-5.161,3.838-9,9-9h53v22l63.997-37.812l-63.997-37.188v22h-53
	c-28.167,0-39.997,16.239-39.997,39.592v70.404L45.451,161.877z"/>
<path display="none" d="M38.719,180.188v-60.403c0.2-18.353,1.876-23.111,14.993-36.229l37.477-37.477L75.632,30.521l71.55-18.957
	l-18.517,71.99l-15.557-15.557l-37.477,37.478c-4.65,4.25-6.316,8.355-5.916,14.716v60L38.719,180.188z"/>
<path display="none" d="M116.186,180.189v-60c0.399-6.359-1.267-10.465-5.917-14.715L72.792,67.997L57.236,83.554L38.72,11.563
	l71.549,18.957L94.712,46.077l37.478,37.477c13.117,13.117,14.793,17.876,14.992,36.229v60.404L116.186,180.189z"/>
<path display="none" d="M77.451,169.375v-83h-22l37.188-63.997l37.812,63.997h-22v83H77.451z"/>
</svg>
