<?xml version="1.0" encoding="utf-8"?>
<!-- Generator: Adobe Illustrator 16.0.0, SVG Export Plug-In . SVG Version: 6.00 Build 0)  -->
<!DOCTYPE svg PUBLIC "-//W3C//DTD SVG 1.1//EN" "http://www.w3.org/Graphics/SVG/1.1/DTD/svg11.dtd">
<svg version="1.1" id="Layer_1" xmlns="http://www.w3.org/2000/svg" xmlns:xlink="http://www.w3.org/1999/xlink" x="0px" y="0px"
	 width="230px" height="230px" viewBox="0 0 230 230" enable-background="new 0 0 230 230" xml:space="preserve">
<g id="Navi_Icons">
	<g id="Sound_On">
		<path fill="#FFFFFF" d="M160.273,183.104l-6.748-6.649c18.729-13.731,30.927-35.935,30.927-60.95
			c0-26.016-13.181-48.997-33.188-62.566l6.723-6.705c21.643,15.373,35.81,40.684,35.81,69.271
			C193.795,143.07,180.626,167.602,160.273,183.104z M146.954,163.07l-6.867-6.771c13.951-8.226,23.361-23.41,23.361-40.799
			c0-18.345-10.466-34.248-25.695-42.097l6.894-6.882c16.799,9.835,28.145,28.081,28.145,48.979
			C172.789,135.432,162.477,152.956,146.954,163.07z M115.162,114.667c0,0,0.002,9.167,0.002,16.565c0,0,0,47.435,0,62.65
			c0,12.116-9.319,0-9.319,0c-40.284-45.666,0,0-40.284-45.666H43.095c0,0-6.889,0.448-6.889-7c0-17.302,0-36.052,0-53.111
			c0-7.023,6.889-7,6.889-7h22.521c40.229-45.659,40.229-45.659,40.229-45.659s9.319-10.615,9.319,0c0,22.718,0,62.652,0,62.652
			C115.164,109.167,115.162,114.667,115.162,114.667z"/>
	</g>
</g>
</svg>
