<?xml version="1.0" encoding="utf-8"?>
<!-- Generator: Adobe Illustrator 16.0.0, SVG Export Plug-In . SVG Version: 6.00 Build 0)  -->
<!DOCTYPE svg PUBLIC "-//W3C//DTD SVG 1.1//EN" "http://www.w3.org/Graphics/SVG/1.1/DTD/svg11.dtd">
<svg version="1.1" id="Layer_1" xmlns="http://www.w3.org/2000/svg" xmlns:xlink="http://www.w3.org/1999/xlink" x="0px" y="0px"
	 width="230px" height="230px" viewBox="0 0 230 230" enable-background="new 0 0 230 230" xml:space="preserve">
<g id="Navi_Icons">
	<g id="Sound_Off">
		<path fill="#FFFFFF" d="M115.162,114.667c0,0,0.002,9.167,0.002,16.565c0,0,0,47.435,0,62.65c0,12.116-9.319,0-9.319,0
			c-40.284-45.666,0,0-40.284-45.666H43.095c0,0-6.889,0.448-6.889-7c0-17.302,0-36.052,0-53.111c0-7.023,6.889-7,6.889-7h22.521
			c40.229-45.659,40.229-45.659,40.229-45.659s9.319-10.615,9.319,0c0,22.718,0,62.652,0,62.652
			C115.164,109.167,115.162,114.667,115.162,114.667z"/>
		<g>
			<path fill="#FFFFFF" d="M178.036,144.225l-13.091-19.24l-13.424,19.24c-1.939,2.688-3.58,4.605-4.926,5.752
				c-1.347,1.146-3.051,1.719-5.125,1.719c-2.291,0-4.242-0.717-5.849-2.15c-1.608-1.427-2.415-3.072-2.415-4.925
				c0-1.894,1.232-4.604,3.702-8.13l16.333-23.405l-14.48-19.505c-2.513-3.218-3.768-6.017-3.768-8.397
				c0-1.851,0.746-3.46,2.242-4.826c1.5-1.367,3.464-2.05,5.888-2.05c2.116,0,3.87,0.595,5.258,1.785
				c1.388,1.19,3.011,3.063,4.86,5.62l11.699,16l11.373-16c1.896-2.645,3.537-4.541,4.926-5.687
				c1.387-1.146,3.119-1.719,5.188-1.719c2.381,0,4.354,0.673,5.918,2.017c1.563,1.345,2.35,2.964,2.35,4.859
				c0,1.367-0.32,2.679-0.961,3.934c-0.639,1.258-1.616,2.745-2.938,4.463l-14.48,19.505l16.332,23.405
				c2.558,3.655,3.832,6.413,3.832,8.266c0,1.894-0.793,3.524-2.379,4.892c-1.588,1.369-3.547,2.052-5.885,2.052
				c-2.07,0-3.826-0.595-5.254-1.788C181.529,148.723,179.889,146.822,178.036,144.225z"/>
		</g>
	</g>
</g>
</svg>
