<?xml version="1.0" encoding="utf-8"?>
<!-- Generator: Adobe Illustrator 16.0.0, SVG Export Plug-In . SVG Version: 6.00 Build 0)  -->
<!DOCTYPE svg PUBLIC "-//W3C//DTD SVG 1.1//EN" "http://www.w3.org/Graphics/SVG/1.1/DTD/svg11.dtd">
<svg version="1.1" id="Ebene_1" xmlns="http://www.w3.org/2000/svg" xmlns:xlink="http://www.w3.org/1999/xlink" x="0px" y="0px"
	 width="230px" height="230px" viewBox="0 0 230 230" enable-background="new 0 0 230 230" xml:space="preserve">
<path display="none" d="M123.006,166.91c-10.765,3.715-22.71,4.369-34.54,1.211c-14.484-3.912-26.16-12.91-33.842-24.508
	l22.146-12.814l-52.651-20.953l-8.504,56.337l20.264-11.722c10.463,16.388,26.782,29.078,47.013,34.511
	c16.771,4.506,33.717,3.377,48.848-2.228L123.006,166.91z"/>
<path display="none" d="M97.075,23.41c-19.417,1.006-38.51,8.93-53.225,23.84C31.652,59.609,24.266,74.904,21.667,90.826
	l21.562,2.201c2.084-11.195,7.414-21.906,16.002-30.634C69.785,51.73,83.374,46.02,97.253,45.067l0.208,25.586l44.219-35.438
	L96.888,0L97.075,23.41"/>
<path display="none" d="M147.617,61.719c8.666,7.387,15.295,17.347,18.578,29.143c3.984,14.465,2.162,29.092-3.93,41.598
	l-22.285-12.571l8.682,55.997l52.854-21.276l-20.387-11.506c8.807-17.336,11.454-37.835,5.862-58.024
	c-4.634-16.735-14.212-30.764-26.72-40.953L147.617,61.719z"/>
<path display="none" d="M180.18,163.758l0.004-102.996c0-31.486-39.351-42.65-61-23L71.461,85.031L55.904,69.474l-18.957,71.549
	l71.99-18.518L93.38,106.95l37.478-37.477c7.117-8.517,17.857-6.339,18.324,4.288v90L180.18,163.758z"/>
<path display="none" d="M67.948,163.764V73.758c0.467-10.627,11.208-12.805,18.325-4.287l37.476,37.478l-15.556,15.558
	l71.991,18.517l-18.957-71.55L145.669,85.03L97.948,37.76c-21.65-19.65-61-8.486-61,23l0.003,103.001L67.948,163.764z"/>
<path display="none" d="M187.062,161.873V91.469c0-23.353-11.83-39.592-39.998-39.592h-53v-22L30.068,67.065l63.997,37.812v-22h53
	c5.162,0,9,3.839,9,9v70L187.062,161.873z"/>
<path display="none" d="M61.065,161.877v-70c0-5.161,3.838-9,9-9h53v22l63.998-37.812l-63.998-37.188v22h-53
	c-28.167,0-39.997,16.239-39.997,39.592v70.404L61.065,161.877z"/>
<path display="none" d="M54.334,180.188v-60.403c0.2-18.353,1.876-23.111,14.993-36.229l37.477-37.477L91.247,30.521l71.549-18.957
	l-18.517,71.99l-15.557-15.557l-37.478,37.478c-4.65,4.25-6.316,8.355-5.916,14.716v60L54.334,180.188z"/>
<path display="none" d="M131.8,180.189v-60c0.4-6.359-1.266-10.465-5.916-14.715L88.407,67.997L72.851,83.554l-18.516-71.99
	l71.549,18.957l-15.557,15.557l37.478,37.477c13.116,13.117,14.793,17.876,14.992,36.229v60.403L131.8,180.189z"/>
<path display="none" d="M93.065,169.375v-83h-22l37.188-63.997l37.812,63.997h-22v83H93.065z"/>
<path display="none" d="M0,78.946c10.22,6.251,20.467,10.191,30.737,12.427c-0.073,9.902-0.146,19.485-0.229,29.061
	C20.29,118.659,10.119,115.351,0,109.939C0,99.608,0,89.283,0,78.946L0,78.946z"/>
<path display="none" d="M0,140.925c9.963,4.546,20.046,7.209,30.222,8.521c-0.108,9.871-0.233,20.049-0.379,30.842
	c-10.142-1.264-20.11-3.877-29.842-8.379C0,161.579,0,151.252,0,140.925z"/>
<path display="none" d="M30.954,60.374c10.342,2.284,20.704,2.898,31.079,2.428c-0.159,10.986-0.295,21.101-0.419,30.776
	c-10.313,0.562-20.608,0.03-30.877-2.205C30.809,81.468,30.878,71.238,30.954,60.374L30.954,60.374z"/>
<path display="none" d="M30.507,120.434c10.216,1.775,20.477,2.018,30.775,1.295c-0.101,9.234-0.193,18.465-0.284,28.123
	c-10.332,0.865-20.601,0.906-30.775-0.403C30.332,139.574,30.423,130.009,30.507,120.434L30.507,120.434z"/>
<path display="none" d="M61.614,93.578c10.314-0.563,20.648-2.22,31.001-4.368c-0.15,9.61-0.262,18.818-0.335,28.03
	c-10.364,2.078-20.7,3.765-30.998,4.486C61.384,112.492,61.491,103.253,61.614,93.578L61.614,93.578z"/>
<path display="none" d="M60.998,149.852c10.333-0.865,20.731-2.558,31.167-4.545c-0.002,9.635,0.032,19.688,0.099,30.566
	c-10.582,2.021-21.117,3.757-31.542,4.67C60.817,169.596,60.908,159.51,60.998,149.852z"/>
<path display="none" d="M93.186,58.729c10.391-2.049,20.784-4.596,31.173-7.052c-0.271,10.572-0.483,20.548-0.637,30.233
	c-10.386,2.517-20.754,5.153-31.106,7.3C92.766,79.595,92.956,69.572,93.186,58.729L93.186,58.729z"/>
<path display="none" d="M92.28,117.24c10.362-2.078,20.753-4.552,31.167-6.847c-0.028,9.409,0.008,18.833,0.113,28.58
	c-10.485,2.057-20.958,4.344-31.396,6.332C92.167,135.671,92.204,126.453,92.28,117.24L92.28,117.24z"/>
<path display="none" d="M123.723,81.911c10.385-2.517,20.783-4.915,31.193-6.585c-0.13,9.851-0.191,19.554-0.178,29.28
	c-10.445,1.373-20.879,3.492-31.291,5.788C123.477,100.984,123.568,91.595,123.723,81.911L123.723,81.911z"/>
<path display="none" d="M123.561,138.973c10.486-2.057,20.981-3.884,31.463-4.955c0.179,9.938,0.44,20.061,0.8,30.535
	c-10.521,1.041-21.119,2.86-31.733,4.924C123.841,158.785,123.666,148.718,123.561,138.973L123.561,138.973z"/>
<path display="none" d="M155.504,45.17c10.37-1.688,20.729-2.698,31.062-2.442c-0.174,10.184-0.305,20.293-0.385,30.374
	c-10.434-0.391-20.854,0.553-31.268,2.224C155.047,65.474,155.245,55.478,155.504,45.17L155.504,45.17z"/>
<path display="none" d="M154.738,104.605c10.445-1.374,20.904-2,31.367-1.309c0.031,10.068,0.123,20.156,0.285,30.308
	c-10.424-0.972-20.889-0.658-31.367,0.412C154.848,124.081,154.754,114.333,154.738,104.605L154.738,104.605z"/>
<path display="none" d="M186.182,73.101c10.434,0.389,20.873,2.114,31.317,5.781c0,10.337,0,20.667,0,31.003
	c-10.464-3.893-20.931-5.899-31.394-6.589C186.073,93.23,186.102,83.18,186.182,73.101L186.182,73.101z"/>
<path display="none" d="M186.391,133.604c10.422,0.972,20.801,3.227,31.108,7.293c0,10.336,0,20.674,0,31.012
	c-9.955-4.204-20.114-6.562-30.415-7.611C186.779,153.971,186.551,143.756,186.391,133.604L186.391,133.604z"/>
<path display="none" d="M0.001,16.863c10.356,4.442,20.763,7.188,31.2,8.694c-0.091,12.451-0.172,23.951-0.248,34.817
	C20.613,58.089,10.292,54.134,0,47.921C0,37.575,0.001,27.223,0.001,16.863z"/>
<path display="none" d="M62.579,26.802C73.052,26.28,83.533,24.97,94,23.329c-0.313,12.895-0.584,24.558-0.814,35.4
	c-10.391,2.05-20.778,3.604-31.152,4.072C62.192,51.817,62.371,39.961,62.579,26.802L62.579,26.802z"/>
<path display="none" d="M125.333,17.866c10.415-1.848,20.795-3.573,31.116-4.718c-0.369,11.095-0.688,21.714-0.945,32.021
	c-10.371,1.687-20.755,4.053-31.145,6.508C124.629,41.106,124.955,29.938,125.333,17.866L125.333,17.866z"/>
<path display="none" d="M187.215,11.903c10.182,0.466,20.284,1.968,30.284,4.958c0,10.337,0,20.674,0,31.011
	c-10.283-3.372-20.597-4.891-30.933-5.145C186.742,32.543,186.961,22.284,187.215,11.903L187.215,11.903z"/>
<path fill="#FFFFFF" d="M204.363,159.762v30.789c0,3.758-1.405,6.826-5.002,6.826h-17.336c-3.66,0-6.102-3.044-6.102-6.812v-14.028
	c-1.244,0.243-2.285,0.392-2.967,0.392H52.525c-0.771,0-1.991-0.173-3.499-0.492v14.125c0,3.774-2.447,6.818-6.094,6.818H25.589
	c-3.583,0-4.996-3.068-4.996-6.832v-32.238c-2.035-7.108-5.361-20.99-5.522-36.705c-0.013-1.752,5.22-3.498,5.22-5.291
	c0-21.183,10.338-19.127,10.813-21.439c5.24-26.48,9.972-46.932,9.972-46.932c0-5.792,7.853-12.576,13.028-12.576
	c0,0,7.448-3.149,58.636-3.149c51.201,0,58.638,3.149,58.638,3.149c5.156,0,13.011,6.784,13.011,12.576
	c0,0,4.226,20.451,9.45,46.675c0.515,2.568,10.774,0.514,10.774,21.793c0,1.655,5.26,3.308,5.24,4.938
	C209.766,138.348,206.193,153.238,204.363,159.762z M57.348,146.509c0,3.765,2.806,8.912,6.28,8.912h97.697
	c3.467,0,6.278-5.147,6.278-8.912v-5.245c0-3.77-12.033-17.306-14.937-17.306c0,0-17.376-2.619-40.022-2.619
	c-22.775,0-40.369,2.619-40.369,2.619c-2.915,0-14.935,13.536-14.935,17.306v5.245H57.348z M27.162,118.719
	c0,7.963,6.459,14.409,14.435,14.409c7.981,0,14.447-6.446,14.447-14.409c0-7.962-6.466-14.422-14.447-14.422
	C33.622,104.297,27.162,110.757,27.162,118.719z M176.646,49.506c0-3.763-4.983-6.812-8.567-6.812c0,0-24.798-3.15-55.605-3.15
	c-30.815,0-55.067,3.15-55.067,3.15c-3.596,0-8.572,3.043-8.572,6.812l-5.669,34.603c0,3.763,3.069,6.826,6.87,6.826
	c0,0,27.983-5.246,62.612-5.246c34.514,0,62.779,5.246,62.779,5.246c3.808,0,6.87-3.057,6.87-6.826L176.646,49.506z
	 M183.367,104.297c-7.975,0-14.454,6.46-14.454,14.422c0,7.963,6.479,14.409,14.454,14.409c7.98,0,14.429-6.446,14.429-14.409
	C197.796,110.757,191.35,104.297,183.367,104.297z"/>
<path display="none" d="M131.18,179.877h75.387l-60.308-168h-29.161l2.774,42H97.259l2.851-42H70.88l-60.313,168h75.391l5.656-63
	h33.934L131.18,179.877z M92.856,102.877l3.773-42H120.5l3.773,42H92.856z"/>
<path display="none" fill="#010101" d="M108.565,11.719c-46.407,0-84.157,37.75-84.157,84.157s37.75,84.158,84.157,84.158
	c46.408,0,84.158-37.751,84.158-84.158S154.973,11.719,108.565,11.719z M145.068,64.667c1.354,1.363,1.354,3.596,0,4.965
	l-22.928,22.944c0.262,1.062,0.438,2.191,0.438,3.356c0,7.738-6.287,14.067-14.025,14.067c-5.247,0-9.78-3.59-12.178-7.096H77.007
	c-1.932,0-3.506-1.746-3.506-3.671v-6.685c0-1.917,1.575-3.664,3.506-3.664h19.382c2.411-3.507,6.93-7.103,12.176-7.103
	c1.369,0,2.699,0.349,3.958,0.727l22.704-22.697c1.362-1.356,3.598-1.356,4.959,0L145.068,64.667z M108.565,158.995
	c-34.874,0-63.118-28.261-63.118-63.119c0-34.86,28.244-63.118,63.118-63.118c34.859,0,63.119,28.258,63.119,63.118
	C171.684,130.734,143.425,158.995,108.565,158.995z"/>
</svg>
