<?xml version="1.0" encoding="utf-8"?>
<!-- Generator: Adobe Illustrator 16.0.0, SVG Export Plug-In . SVG Version: 6.00 Build 0)  -->
<!DOCTYPE svg PUBLIC "-//W3C//DTD SVG 1.1//EN" "http://www.w3.org/Graphics/SVG/1.1/DTD/svg11.dtd">
<svg version="1.1" id="Layer_1" xmlns="http://www.w3.org/2000/svg" xmlns:xlink="http://www.w3.org/1999/xlink" x="0px" y="0px"
	 width="230px" height="230px" viewBox="0 0 230 230" enable-background="new 0 0 230 230" xml:space="preserve">
<g id="Navi_Icons">
	<g id="map">
		<polygon fill="#FFFFFF" points="23.232,172.82 79.447,182.729 79.447,101.517 72.108,100.535 34.481,117.736 26.992,106.506 
			69.001,88.68 72.87,87.843 79.447,88.876 79.447,47.271 23.232,57.319 		"/>
		<polygon fill="#FFFFFF" points="150.561,57.319 150.561,125.822 188.014,110.248 191.755,121.49 150.561,138.646 150.561,140.205 
			150.561,172.82 206.77,182.729 206.77,47.271 		"/>
		<polygon fill="#FFFFFF" points="116.872,106.506 86.885,102.51 86.885,182.729 143.042,172.82 143.042,138.611 142.782,138.555 		
			"/>
		<polygon fill="#FFFFFF" points="86.885,90.048 124.182,95.927 128.107,99.022 143.042,119.834 143.042,57.319 86.885,47.271 		"/>
	</g>
</g>
</svg>
