<?xml version="1.0" encoding="utf-8"?>
<!-- Generator: Adobe Illustrator 16.0.0, SVG Export Plug-In . SVG Version: 6.00 Build 0)  -->
<!DOCTYPE svg PUBLIC "-//W3C//DTD SVG 1.1//EN" "http://www.w3.org/Graphics/SVG/1.1/DTD/svg11.dtd">
<svg version="1.1" id="Layer_1" xmlns="http://www.w3.org/2000/svg" xmlns:xlink="http://www.w3.org/1999/xlink" x="0px" y="0px"
	 width="230px" height="230px" viewBox="0 0 230 230" enable-background="new 0 0 230 230" xml:space="preserve">
<g id="Navi_Icons">
	<g id="Position">
		<path fill="#FFFFFF" d="M113.875,31c-46.389,0-84,37.607-84,84c0,46.393,37.611,84,84,84c46.391,0,84-37.607,84-84
			C197.875,68.607,160.266,31,113.875,31z M119.654,177.729v-26.896h-11.085v26.935c-30.373-2.551-54.686-26.729-57.422-57.054
			H78.45v-11.085H51.12c2.587-30.479,26.959-54.828,57.45-57.385V79.51h11.086V52.28c30.268,2.764,54.396,27.03,56.976,57.348
			h-26.86v11.085h26.832C173.879,150.877,149.811,174.971,119.654,177.729z"/>
	</g>
</g>
</svg>
