<?xml version="1.0" encoding="utf-8"?>
<!-- Generator: Adobe Illustrator 16.0.0, SVG Export Plug-In . SVG Version: 6.00 Build 0)  -->
<!DOCTYPE svg PUBLIC "-//W3C//DTD SVG 1.1//EN" "http://www.w3.org/Graphics/SVG/1.1/DTD/svg11.dtd">
<svg version="1.1" id="Ebene_1" xmlns="http://www.w3.org/2000/svg" xmlns:xlink="http://www.w3.org/1999/xlink" x="0px" y="0px"
	 width="230px" height="230px" viewBox="0 0 230 230" enable-background="new 0 0 230 230" xml:space="preserve">
<path display="none" d="M112.44,166.91c-10.765,3.715-22.71,4.369-34.54,1.211c-14.484-3.912-26.16-12.91-33.842-24.508
	l22.146-12.814l-52.651-20.953l-8.504,56.337l20.264-11.722c10.463,16.388,26.782,29.078,47.013,34.511
	c16.771,4.506,33.718,3.377,48.848-2.228L112.44,166.91z"/>
<path display="none" d="M86.51,23.41C67.093,24.416,48,32.34,33.285,47.25C21.087,59.609,13.7,74.904,11.101,90.826l21.562,2.201
	c2.084-11.195,7.414-21.906,16.002-30.634C59.22,51.73,72.809,46.02,86.688,45.067l0.208,25.586l44.217-35.438L86.322,0L86.51,23.41
	"/>
<path display="none" d="M137.052,61.719c8.666,7.387,15.296,17.347,18.579,29.143c3.982,14.465,2.161,29.092-3.931,41.598
	l-22.285-12.571l8.683,55.997l52.854-21.276l-20.388-11.506c8.808-17.336,11.453-37.835,5.861-58.024
	c-4.634-16.735-14.211-30.764-26.719-40.953L137.052,61.719z"/>
<path display="none" d="M169.613,163.758l0.004-102.996c0-31.486-39.35-42.65-61-23L60.896,85.031L45.339,69.474l-18.957,71.549
	l71.99-18.518L82.815,106.95l37.477-37.477c7.117-8.517,17.858-6.339,18.325,4.288v90L169.613,163.758z"/>
<path display="none" d="M57.382,163.764V73.758c0.467-10.627,11.208-12.805,18.325-4.287l37.476,37.478l-15.556,15.558l71.99,18.517
	L150.66,69.471l-15.557,15.557l-47.723-47.27c-21.65-19.65-61-8.486-61,23l0.003,103.001L57.382,163.764z"/>
<path display="none" d="M176.497,161.873V91.469c0-23.353-11.83-39.592-39.997-39.592h-53v-22L19.503,67.065L83.5,104.877v-22h53
	c5.162,0,9,3.839,9,9v70L176.497,161.873z"/>
<path display="none" d="M50.5,161.877v-70c0-5.161,3.838-9,9-9h53v22l63.997-37.812L112.5,29.877v22h-53
	c-28.167,0-39.997,16.239-39.997,39.592v70.404L50.5,161.877z"/>
<path display="none" d="M43.769,180.188v-60.403c0.2-18.353,1.876-23.111,14.993-36.229l37.477-37.477L80.682,30.521l71.548-18.957
	l-18.517,71.99l-15.557-15.557L80.68,105.475c-4.65,4.25-6.316,8.355-5.916,14.716v60L43.769,180.188z"/>
<path display="none" d="M121.234,180.189v-60c0.398-6.359-1.268-10.465-5.917-14.715L77.842,67.997L62.285,83.554L43.77,11.563
	l71.549,18.957L99.762,46.077l37.476,37.477c13.117,13.117,14.794,17.876,14.994,36.229v60.404L121.234,180.189z"/>
<path display="none" d="M82.5,169.375v-83h-22l37.188-63.997L135.5,86.375h-22v83H82.5z"/>
<path fill="#FFFFFF" d="M15.75,95.426c9.14,5.59,18.303,9.114,27.486,11.113c-0.065,8.855-0.131,17.425-0.205,25.988
	c-9.137-1.588-18.232-4.547-27.281-9.385C15.75,113.904,15.75,104.67,15.75,95.426L15.75,95.426z"/>
<path fill="#FFFFFF" d="M15.751,150.852c8.91,4.064,17.926,6.446,27.026,7.621c-0.097,8.826-0.208,17.926-0.339,27.577
	c-9.069-1.128-17.983-3.467-26.686-7.491C15.751,169.32,15.751,160.086,15.751,150.852z"/>
<path fill="#FFFFFF" d="M43.431,78.818c9.249,2.042,18.515,2.592,27.792,2.171c-0.142,9.825-0.264,18.87-0.375,27.521
	c-9.223,0.502-18.429,0.026-27.612-1.973C43.301,97.682,43.364,88.534,43.431,78.818L43.431,78.818z"/>
<path fill="#FFFFFF" d="M43.032,132.527c9.136,1.587,18.312,1.802,27.521,1.156c-0.09,8.258-0.172,16.514-0.254,25.148
	c-9.24,0.771-18.422,0.812-27.521-0.361C42.875,149.645,42.956,141.09,43.032,132.527L43.032,132.527z"/>
<path fill="#FFFFFF" d="M70.849,108.512c9.223-0.504,18.465-1.985,27.723-3.906c-0.134,8.594-0.234,16.828-0.3,25.065
	c-9.268,1.858-18.511,3.367-27.72,4.013C70.643,125.426,70.739,117.163,70.849,108.512L70.849,108.512z"/>
<path fill="#FFFFFF" d="M70.298,158.834c9.24-0.773,18.539-2.287,27.871-4.064c-0.002,8.615,0.028,17.604,0.088,27.334
	c-9.463,1.81-18.883,3.359-28.206,4.179C70.137,176.49,70.217,167.471,70.298,158.834z"/>
<path fill="#FFFFFF" d="M99.082,77.348c9.292-1.833,18.587-4.109,27.878-6.306c-0.242,9.454-0.435,18.375-0.569,27.036
	c-9.287,2.251-18.561,4.608-27.819,6.528C98.707,96.007,98.876,87.043,99.082,77.348L99.082,77.348z"/>
<path fill="#FFFFFF" d="M98.272,129.671c9.267-1.858,18.559-4.069,27.873-6.122c-0.024,8.414,0.008,16.842,0.103,25.557
	c-9.377,1.84-18.743,3.887-28.076,5.664C98.171,146.152,98.204,137.91,98.272,129.671L98.272,129.671z"/>
<path fill="#FFFFFF" d="M126.391,98.078c9.284-2.251,18.586-4.395,27.896-5.889c-0.115,8.81-0.17,17.486-0.158,26.185
	c-9.342,1.228-18.67,3.122-27.981,5.176C126.169,115.135,126.251,106.737,126.391,98.078L126.391,98.078z"/>
<path fill="#FFFFFF" d="M126.245,149.105c9.377-1.84,18.762-3.475,28.135-4.434c0.158,8.887,0.396,17.938,0.716,27.309
	c-9.408,0.931-18.888,2.558-28.38,4.401C126.495,166.823,126.339,157.82,126.245,149.105L126.245,149.105z"/>
<path fill="#FFFFFF" d="M154.811,65.222c9.272-1.509,18.537-2.413,27.778-2.184c-0.155,9.107-0.272,18.147-0.346,27.162
	c-9.328-0.349-18.647,0.494-27.959,1.989C154.4,83.379,154.579,74.44,154.811,65.222L154.811,65.222z"/>
<path fill="#FFFFFF" d="M154.126,118.373c9.342-1.229,18.692-1.789,28.051-1.171c0.027,9.004,0.109,18.024,0.255,27.103
	c-9.32-0.867-18.679-0.588-28.052,0.369C154.223,135.789,154.141,127.07,154.126,118.373L154.126,118.373z"/>
<path fill="#FFFFFF" d="M182.243,90.2c9.33,0.348,18.666,1.891,28.006,5.17c0,9.244,0,18.481,0,27.726
	c-9.356-3.482-18.717-5.275-28.072-5.894C182.146,108.2,182.173,99.213,182.243,90.2L182.243,90.2z"/>
<path fill="#FFFFFF" d="M182.432,144.305c9.317,0.867,18.601,2.885,27.817,6.521c0,9.242,0,18.486,0,27.73
	c-8.901-3.761-17.985-5.869-27.197-6.808C182.777,162.518,182.573,153.383,182.432,144.305L182.432,144.305z"/>
<path fill="#FFFFFF" d="M15.752,39.909c9.261,3.972,18.567,6.429,27.901,7.775c-0.082,11.134-0.154,21.418-0.222,31.135
	c-9.248-2.043-18.478-5.58-27.68-11.136C15.751,58.43,15.752,49.173,15.752,39.909z"/>
<path fill="#FFFFFF" d="M71.711,48.797c9.366-0.467,18.739-1.639,28.098-3.106c-0.28,11.531-0.522,21.961-0.728,31.657
	c-9.292,1.833-18.581,3.223-27.858,3.642C71.366,71.166,71.526,60.564,71.711,48.797L71.711,48.797z"/>
<path fill="#FFFFFF" d="M127.829,40.806c9.313-1.652,18.596-3.195,27.825-4.219c-0.329,9.922-0.614,19.417-0.846,28.635
	c-9.272,1.509-18.56,3.624-27.851,5.82C127.2,61.588,127.491,51.601,127.829,40.806L127.829,40.806z"/>
<path fill="#FFFFFF" d="M183.167,35.474c9.104,0.417,18.142,1.759,27.082,4.434c0,9.244,0,18.487,0,27.731
	c-9.194-3.015-18.418-4.374-27.66-4.601C182.745,53.931,182.939,44.756,183.167,35.474L183.167,35.474z"/>
<path display="none" fill="#010101" d="M193.799,139.762v30.789c0,3.758-1.406,6.826-5.002,6.826H171.46
	c-3.66,0-6.101-3.044-6.101-6.812v-14.028c-1.246,0.243-2.285,0.392-2.967,0.392H41.96c-0.771,0-1.991-0.173-3.499-0.492v14.125
	c0,3.774-2.447,6.818-6.094,6.818H15.023c-3.583,0-4.996-3.068-4.996-6.832v-32.238c-2.035-7.108-5.361-20.99-5.522-36.705
	c-0.013-1.753,5.22-3.499,5.22-5.291c0-21.183,10.338-19.128,10.813-21.44c5.24-26.48,9.972-46.932,9.972-46.932
	c0-5.792,7.853-12.576,13.028-12.576c0,0,7.448-3.149,58.636-3.149c51.202,0,58.639,3.149,58.639,3.149
	c5.155,0,13.011,6.784,13.011,12.576c0,0,4.225,20.451,9.45,46.675c0.515,2.568,10.773,0.514,10.773,21.793
	c0,1.656,5.26,3.308,5.24,4.938C199.199,118.348,195.629,133.238,193.799,139.762z M46.782,126.509c0,3.765,2.806,8.912,6.28,8.912
	h97.697c3.468,0,6.279-5.147,6.279-8.912v-5.245c0-3.77-12.033-17.306-14.937-17.306c0,0-17.375-2.619-40.021-2.619
	c-22.775,0-40.369,2.619-40.369,2.619c-2.915,0-14.935,13.536-14.935,17.306v5.245H46.782z M16.597,98.719
	c0,7.962,6.459,14.409,14.435,14.409c7.981,0,14.447-6.447,14.447-14.409c0-7.962-6.466-14.422-14.447-14.422
	C23.056,84.297,16.597,90.757,16.597,98.719z M166.08,29.506c0-3.763-4.982-6.812-8.566-6.812c0,0-24.799-3.15-55.604-3.15
	c-30.815,0-55.067,3.15-55.067,3.15c-3.596,0-8.572,3.043-8.572,6.812L32.6,64.109c0,3.763,3.069,6.826,6.87,6.826
	c0,0,27.983-5.246,62.612-5.246c34.514,0,62.779,5.246,62.779,5.246c3.808,0,6.869-3.057,6.869-6.826L166.08,29.506z
	 M172.802,84.297c-7.975,0-14.454,6.46-14.454,14.422c0,7.962,6.479,14.409,14.454,14.409c7.981,0,14.429-6.447,14.429-14.409
	C187.23,90.757,180.783,84.297,172.802,84.297z"/>
<path display="none" d="M120.613,179.877H196l-60.307-168H106.53l2.775,42H86.693l2.851-42h-29.23L0,179.877h75.391l5.656-63h33.934
	L120.613,179.877z M82.291,102.877l3.773-42h23.871l3.773,42H82.291z"/>
<path display="none" fill="#010101" d="M98,11.719c-46.407,0-84.157,37.75-84.157,84.157S51.593,180.034,98,180.034
	s84.157-37.751,84.157-84.158S144.407,11.719,98,11.719z M134.503,64.667c1.356,1.363,1.356,3.596,0,4.965l-22.929,22.943
	c0.262,1.062,0.438,2.191,0.438,3.356c0,7.738-6.287,14.067-14.025,14.067c-5.247,0-9.78-3.59-12.178-7.096H66.441
	c-1.932,0-3.506-1.746-3.506-3.671v-6.685c0-1.917,1.575-3.664,3.506-3.664h19.382c2.411-3.507,6.93-7.103,12.176-7.103
	c1.369,0,2.699,0.349,3.958,0.727l22.704-22.697c1.362-1.356,3.596-1.356,4.959,0L134.503,64.667z M98,158.995
	c-34.874,0-63.118-28.261-63.118-63.119c0-34.86,28.244-63.118,63.118-63.118c34.859,0,63.118,28.258,63.118,63.118
	C161.118,130.734,132.859,158.995,98,158.995z"/>
</svg>
